PathFileType	4	(X/Y/Z)	./resultDataOpenSim/trcMotMarkerGrf/sub09/qtm-14-05.trc
DataRate	CameraRate	NumFrames	NumMarkers	Units	OrigDataRate	OrigDataStartFrame	OrigNumFrames
250.000000	250.000000	7	24	m	250.000000	304	485
Frame#	Time	L.Toe.Tip			R.Toe.Tip			L.Ankle.Lat			R.Ankle.Lat			L.Ankle.Med			R.Ankle.Med			L.Heel			R.Heel			L.Knee.Lat			R.Knee.Lat			L.Knee.Med			R.Knee.Med			L.Thigh.Upper			R.Thigh.Upper			L.ASIS			R.ASIS			V.Sacral			L.Acromium			R.Acromium			C7			L.Elbow			R.Elbow			L.Wrist.Lat			R.Wrist.Lat
		X1	Y1	Z1	X2	Y2	Z2	X3	Y3	Z3	X4	Y4	Z4	X5	Y5	Z5	X6	Y6	Z6	X7	Y7	Z7	X8	Y8	Z8	X9	Y9	Z9	X10	Y10	Z10	X11	Y11	Z11	X12	Y12	Z12	X13	Y13	Z13	X14	Y14	Z14	X15	Y15	Z15	X16	Y16	Z16	X17	Y17	Z17	X18	Y18	Z18	X19	Y19	Z19	X20	Y20	Z20	X21	Y21	Z21	X22	Y22	Z22	X23	Y23	Z23	X24	Y24	Z24

304	1.212	0.17453496	-0.01686321	0.022252946	1.0826118	0.040381366	0.060362465	0.14228011	0.13173836	-0.052567051	0.93649871	0.052646062	0.10403733	0.17587517	0.1306671	0.039287571	0.93608116	0.091018284	0.011676929	0.084044428	0.17257677	-0.0081873916	0.86440731	0.032221369	0.061016077	0.46929305	0.39411991	-0.10724147	0.93841575	0.50695953	0.15704103	0.48272263	0.38098585	0.016840465	0.91765679	0.49319809	0.032803902	0.59942755	0.77910593	-0.12475074	0.68560883	0.81830256	0.23841804	0.7157591	0.8537952	-0.092444034	0.74495509	0.89478387	0.14669637	0.56503961	0.9347547	0.045706909	0.74840092	1.3222162	-0.132182	0.71624926	1.3363772	0.19851017	0.66116484	1.3821951	0.027211381	0.63707081	0.95479148	-0.19192978	0.53762525	1.0324042	0.28276695	0.88914836	0.84988018	-0.16237777	0.5950464	0.77782759	0.3663432
305	1.216	0.17732208	-0.014970754	0.021469594	1.0827311	0.040268293	0.059957673	0.15007526	0.13554407	-0.052896742	0.93687227	0.052602417	0.10387124	0.18411334	0.13336813	0.038835384	0.93643111	0.090924726	0.01135604	0.093192309	0.17800336	-0.0080283014	0.86445376	0.032212124	0.060898232	0.48112073	0.39199013	-0.10848055	0.94412772	0.50645629	0.15636419	0.49455738	0.37841682	0.015599652	0.92345389	0.49318253	0.031909996	0.60709114	0.77810765	-0.12441019	0.69271785	0.81923114	0.23865329	0.72240611	0.85331471	-0.091570101	0.7516686	0.89534323	0.14702732	0.57192819	0.93496708	0.045845205	0.75538079	1.3220566	-0.13218659	0.72289722	1.3364566	0.19835888	0.66761338	1.3821719	0.026913604	0.64354364	0.95488845	-0.19177562	0.54566519	1.0312994	0.28254376	0.89452644	0.84747593	-0.16248881	0.60503633	0.77712575	0.36606557
306	1.22	0.18025999	-0.012903956	0.020553256	1.0828014	0.040172417	0.059662072	0.1583071	0.13946335	-0.053310528	0.93710377	0.052620268	0.10383046	0.19270541	0.13608163	0.038397925	0.93666751	0.090803237	0.011099428	0.10277717	0.1835739	-0.0077938791	0.86445793	0.032177718	0.06082461	0.49315055	0.3899391	-0.10962697	0.94967764	0.50598821	0.15559328	0.50631245	0.37590863	0.014598278	0.92871837	0.4930221	0.031125064	0.61464953	0.77721055	-0.12404027	0.69974456	0.82017182	0.23887096	0.72887506	0.85304449	-0.090705401	0.75828986	0.89587187	0.14733202	0.57857685	0.93532482	0.046162441	0.7622561	1.3220137	-0.13219923	0.72946862	1.336656	0.19817077	0.67402088	1.3822328	0.026640104	0.65002661	0.95509309	-0.19162641	0.55368953	1.0302387	0.28236392	0.89978314	0.84503384	-0.16262366	0.61523415	0.77659976	0.36580204
307	1.224	0.18337653	-0.010595243	0.019491522	1.0828223	0.040097302	0.059534247	0.16690877	0.14348027	-0.053832189	0.93721247	0.052663425	0.1038899	0.20163168	0.13880092	0.037943307	0.9368121	0.090683842	0.010925282	0.11281489	0.18928176	-0.0074969301	0.86442513	0.032138983	0.060810884	0.5053637	0.38798137	-0.11065648	0.95502501	0.50550416	0.15477881	0.51809138	0.37349651	0.013789187	0.93351169	0.49277378	0.030445071	0.62207573	0.77642911	-0.12365278	0.7066846	0.82109974	0.23907723	0.73516425	0.85300531	-0.089854528	0.76481533	0.89638633	0.1476088	0.58502103	0.93582862	0.046614881	0.76901222	1.3220942	-0.1322317	0.7359722	1.3369699	0.19794615	0.68043033	1.3824322	0.026418052	0.65651436	0.95541106	-0.19147722	0.56181812	1.0291841	0.282238	0.90492245	0.842553	-0.1627975	0.62577244	0.77629582	0.36560317
308	1.228	0.18670782	-0.0079546641	0.018318767	1.082807	0.04004068	0.059497744	0.17575498	0.14755195	-0.054408232	0.9372327	0.052707106	0.10400462	0.21085838	0.14154548	0.037457668	0.93691525	0.090587319	0.010821603	0.12331803	0.19511078	-0.0071637791	0.86436918	0.032113542	0.060850618	0.51767302	0.3861215	-0.11154445	0.96020293	0.50499838	0.15404029	0.53025299	0.37122998	0.012973012	0.93796133	0.49249686	0.029857098	0.6293551	0.77578442	-0.12327186	0.71353894	0.82200022	0.23927422	0.74127183	0.85322025	-0.089021258	0.77124563	0.89690324	0.14785855	0.59137285	0.93645478	0.047072286	0.77563716	1.3223003	-0.13229564	0.74241961	1.3373875	0.19768698	0.68682818	1.3827882	0.026230853	0.66300678	0.9558346	-0.1913274	0.57012923	1.0280995	0.28218422	0.90994036	0.84003532	-0.1630162	0.63657119	0.77618253	0.36540879
309	1.232	0.19031155	-0.0048885757	0.017124973	1.0827728	0.039994481	0.059473719	0.18474932	0.15164925	-0.05494888	0.9372078	0.052738068	0.10411615	0.22033856	0.14437163	0.036935297	0.93702469	0.090513688	0.0107593	0.13427073	0.20104161	-0.0068490471	0.86430438	0.032104155	0.060918332	0.53005651	0.38439448	-0.11232015	0.96526798	0.50455031	0.15346893	0.54309337	0.36915276	0.011988881	0.94220442	0.49223387	0.029345075	0.63649341	0.77528356	-0.12294118	0.72029753	0.82286886	0.23945402	0.7471863	0.8537093	-0.088214726	0.77758397	0.89744082	0.14808406	0.59772919	0.93716643	0.047433184	0.78212224	1.3226287	-0.13239682	0.7488147	1.3379038	0.19739732	0.69317723	1.3832793	0.026045682	0.66950468	0.95634556	-0.19117871	0.57852014	1.0270414	0.28218865	0.91484002	0.83749992	-0.16327725	0.6473282	0.77615327	0.36505954
310	1.236	0.19429189	-0.001330238	0.016040224	1.0827294	0.039954443	0.059447179	0.19388334	0.15578468	-0.055398196	0.93716827	0.052754655	0.10417824	0.23002336	0.14736448	0.036368953	0.93716527	0.090451812	0.010710655	0.14561107	0.2070457	-0.0066436533	0.86424089	0.032101359	0.060985836	0.5425839	0.3828749	-0.11306843	0.97023806	0.50425131	0.15306577	0.55647722	0.36729246	0.010890824	0.94633752	0.49199253	0.028890776	0.64350745	0.77492288	-0.12270585	0.72693674	0.82370942	0.23960518	0.75287075	0.8544751	-0.087461516	0.78383343	0.89802008	0.14828482	0.60410591	0.93794048	0.047692031	0.78846696	1.3230729	-0.13253754	0.75515653	1.3385228	0.19708473	0.69946488	1.3838614	0.025857772	0.67600551	0.95692989	-0.19102876	0.58675134	1.0261667	0.28218613	0.91963911	0.83498101	-0.16357229	0.65780742	0.77613142	0.3644456
